<svg viewBox="0 0 500 500" xmlns="http://www.w3.org/2000/svg" xmlns:xlink="http://www.w3.org/1999/xlink"><linearGradient id="a" gradientUnits="userSpaceOnUse" x1="74.01" x2="73.29" y1="217.14" y2="284.28"><stop offset="0" stop-color="#faa64c"/><stop offset=".58" stop-color="#ff5071"/></linearGradient><path d="m379.91 233.92h6.78v3.76a12.21 12.21 0 0 1 3.86-3.46 9.62 9.62 0 0 1 4.67-1.16 7.48 7.48 0 0 1 4.53 1.51 10.6 10.6 0 0 1 3.31 4.4 11.73 11.73 0 0 1 3.95-4.4 9.33 9.33 0 0 1 5.11-1.51 8.26 8.26 0 0 1 5.06 1.64 9.07 9.07 0 0 1 3.15 4.27c.64 1.75.95 4.59.95 8.53v19.26h-6.83v-16.68q0-5.54-1.14-7.54a3.69 3.69 0 0 0 -3.42-2 4.58 4.58 0 0 0 -3.12 1.24 7.27 7.27 0 0 0 -2 3.35 25.3 25.3 0 0 0 -.66 6.84v14.81h-6.84v-15.95a27.57 27.57 0 0 0 -.53-6.36 5.94 5.94 0 0 0 -1.59-3 3.74 3.74 0 0 0 -2.6-1 4.51 4.51 0 0 0 -3.07 1.24 7.35 7.35 0 0 0 -2.06 3.46 25.15 25.15 0 0 0 -.69 6.89v14.65h-6.78zm-40.91 5.75-6.67 3.81a11.42 11.42 0 0 0 -3.69-2.85 10.7 10.7 0 0 0 -4.31-.8 9.9 9.9 0 0 0 -7.29 2.76 9.6 9.6 0 0 0 -2.78 7.11 9.2 9.2 0 0 0 2.68 6.84 9.49 9.49 0 0 0 7 2.66 10 10 0 0 0 8.37-3.81l6.35 4.51q-5.19 6.81-14.51 6.81-8.43 0-13.2-5.12a17.65 17.65 0 0 1 -2.43-20.82 16.81 16.81 0 0 1 6.46-6.31 19.89 19.89 0 0 1 17.83-.37 15.83 15.83 0 0 1 6.19 5.58zm-56-16.06c-7.13.14-11.71 3.82-13.65 11l-.23.9 7.65 1.84.1-.53c.74-3.89 2.83-5.91 6.37-6.16 3.46.13 5.19 1.71 5.31 4.89-.24 3.9-2.61 5.84-7.3 5.84h-3.82v6.82h5.38c4.57.12 6.94 2 7.3 5.71.12 4.71-2.23 6.93-7.28 6.81-4-.13-6.24-2.32-6.73-6.72l-.07-.58-7.67 1.84.1.5c1.48 7.56 6.44 11.44 14.74 11.58 9.25-.41 14.22-4.79 14.76-13v-.31c-.22-4.21-2.55-7.4-6.93-9.56l-.28-.13.18-.09c3.64-1.85 5.49-4.69 5.49-8.48-.31-7.97-4.84-12.03-13.42-12.17zm-67.73 22.19a8.79 8.79 0 0 0 -3.16-4.6 8.57 8.57 0 0 0 -5.33-1.77 9.28 9.28 0 0 0 -5.9 2 11.09 11.09 0 0 0 -2.9 4.37zm8.18 6.44h-25.22a8.63 8.63 0 0 0 3 5.39 9.07 9.07 0 0 0 6 2 10.34 10.34 0 0 0 7.53-3.12l6.56 3.12a15.78 15.78 0 0 1 -5.93 5.37 17.86 17.86 0 0 1 -8.11 1.72 15.89 15.89 0 0 1 -12-4.77 16.37 16.37 0 0 1 -4.6-11.85 17 17 0 0 1 4.6-12.22 15.26 15.26 0 0 1 11.51-4.82 15.89 15.89 0 0 1 12 4.82q4.63 4.83 4.63 12.85zm-82.59-30.12h7.67l5.92 27.63 7.23-27.63h6.46l7.45 27.63 5.81-27.63h7.67l-9.2 43.25h-7.45l-7.56-28-7.34 28h-7.46zm304.08 16.62a9.33 9.33 0 1 0 9.33 9.33 9.33 9.33 0 0 0 -9.33-9.33zm-9.55-6.58v3.18a15.92 15.92 0 1 1 0 25.47v13.19h-7.28v-41.84zm-188.74 9.31a9.33 9.33 0 1 0 9.35 9.33 9.33 9.33 0 0 0 -9.35-9.33zm-9.55-16.59v13.19a15.92 15.92 0 1 1 0 25.47v3.18h-7.28v-41.84zm120.06 15.87a9.6 9.6 0 1 0 9.6 9.6 9.59 9.59 0 0 0 -9.6-9.6zm16.38-6.75v32.75h-6.54v-3.27a16.38 16.38 0 1 1 0-26.2v-3.28z" fill-rule="evenodd"/><path d="m79.8 221.25c0 7.93 5.74 14.33 12.73 14.29s12.61-6.5 12.56-14.43a15.65 15.65 0 0 0 -.65-4.48v-.14a71.88 71.88 0 0 1 7.78 17.73 36.83 36.83 0 0 1 1.41 11.5v1.83a39.57 39.57 0 0 1 -5.54 20.5 2 2 0 0 0 -.35-.53l-14.84-16.16-14.08 8.32-15.34-17.32-23.59 25.52a1.76 1.76 0 0 0 -.33.49 40.91 40.91 0 0 1 -2.6-5.06 32.62 32.62 0 0 1 -3.23-12.77c0-.19 0-.38 0-.58v-.69-1.27c0-.32 0-.63 0-.95s0-.81 0-1.23c0-.09 0-.18 0-.28v-.45c0-.07 0-.14 0-.21 0-.65.12-1.3.2-2v-.22l.06-.48c0-.1 0-.2 0-.31l.05-.37.07-.43v-.29.14-.23-.09c0-.25.09-.5.14-.75v-.16c0-.22.08-.43.13-.64v-.09c0-.24.1-.46.16-.69v-.21c0-.21.1-.41.16-.61v-.06l.39-1.33.06-.18.21-.63.05-.15c.06-.18.13-.35.19-.53v-.1c.16-.44.33-.86.51-1.28l.08-.18c.16-.38.33-.76.51-1.13l.09-.19v.05a40.09 40.09 0 0 1 15.21-17.4c1-.89 1.9-1.77 2.8-2.66l.44-.44c6.32-6.38 10.27-13.24 4.94-25.68l-.27-.61a35.4 35.4 0 0 1 19.86 31.6zm26.51 49.58a39.07 39.07 0 0 1 -4.19 5l-56.44.32a39.92 39.92 0 0 1 -4.24-4.93zm-55.46 9.22 46.5-.26h.16q-1.2.9-2.49 1.71a39.73 39.73 0 0 1 -6.47 3.29l-29.19.21a39.67 39.67 0 0 1 -8.91-4.81l-.12-.09z" fill="url(#a)"/></svg>